<svg xmlns="http://www.w3.org/2000/svg" viewBox="0 0 512 512" role="img" aria-label="French 75 drink label">
  <defs>
    <filter id="paper" x="-20%" y="-20%" width="140%" height="140%"><feTurbulence type="fractalNoise" baseFrequency="0.85" numOctaves="4" seed="153" result="noise"/><feColorMatrix in="noise" type="matrix" values="0 0 0 0 0.95 0 0 0 0 0.78 0 0 0 0 0.45 0 0 0 .16 0"/><feBlend in="SourceGraphic" mode="soft-light"/></filter>
    <filter id="ink" x="-20%" y="-20%" width="140%" height="140%"><feTurbulence type="fractalNoise" baseFrequency="0.035" numOctaves="2" seed="117" result="wobble"/><feDisplacementMap in="SourceGraphic" in2="wobble" scale="2.1"/></filter>
    <linearGradient id="glass" x1="0" x2="1" y1="0" y2="1"><stop offset="0" stop-color="#fff7e8" stop-opacity=".34"/><stop offset=".42" stop-color="#ffd28a" stop-opacity=".08"/><stop offset="1" stop-color="#0c0705" stop-opacity=".2"/></linearGradient>
    <linearGradient id="liquid" x1="0" x2="0" y1="0" y2="1"><stop offset="0" stop-color="#f0d780" stop-opacity=".86"/><stop offset="1" stop-color="#856d35" stop-opacity=".96"/></linearGradient>
    <radialGradient id="glow" cx="50%" cy="42%" r="58%"><stop offset="0" stop-color="#ffd28a" stop-opacity=".26"/><stop offset="1" stop-color="#0c0705" stop-opacity="0"/></radialGradient>
  </defs>
  <rect width="512" height="512" fill="none"/>
  <g filter="url(#paper)">
    <path d="M57 82 C123 51 378 48 447 84 C471 150 470 369 445 430 C372 467 138 468 62 431 C36 367 38 148 57 82 Z" fill="#140905" opacity=".94"/>
    <path d="M72 96 C140 70 363 66 432 97 C453 160 451 354 429 416 C356 444 153 446 82 417 C58 356 60 158 72 96 Z" fill="#24130b" opacity=".62"/>
    <path d="M88 112 C156 91 346 88 413 114" stroke="#ffd28a" stroke-width="4" opacity=".45" fill="none"/>
    <path d="M86 402 C160 424 353 423 426 398" stroke="#ffd28a" stroke-width="4" opacity=".36" fill="none"/>
    <circle cx="116" cy="142" r="5" fill="#ffd28a" opacity=".45"/><circle cx="408" cy="358" r="4" fill="#ffd28a" opacity=".36"/><circle cx="92" cy="342" r="3" fill="#fff1cc" opacity=".32"/>
    <ellipse cx="256" cy="248" rx="174" ry="166" fill="url(#glow)"/>
    
    <path filter="url(#ink)" stroke="#ffd28a" stroke-width="5" stroke-linejoin="round" fill="url(#glass)" opacity=".96" d="M205 80 L307 80 L287 344 C277 370 235 370 225 344 Z"/>
    <path d="M218 148 L294 148 L279 332 C270 350 242 350 233 332 Z" fill="url(#liquid)" opacity=".72"/>
    <path d="M256 358 L256 420" stroke="#ffd28a" stroke-width="7" stroke-linecap="round" opacity=".82"/>
    <path d="M198 437 C228 423 284 423 314 437" stroke="#ffd28a" stroke-width="8" stroke-linecap="round" fill="none" opacity=".78"/>
    <path d="M153 122 C206 132 308 130 362 120" stroke="#fff7e8" stroke-width="7" stroke-linecap="round" opacity=".42"/>
    <path d="M180 154 C196 218 209 253 236 287" stroke="#fff7e8" stroke-width="5" stroke-linecap="round" opacity=".35"/>
    <path d="M348 88 C384 52 426 61 397 102 C378 129 421 123 423 88" stroke="#f0a43a" stroke-width="13" fill="none" stroke-linecap="round"/>
    <text x="256" y="470" text-anchor="middle" fill="#ffd28a" opacity=".82" font-family="Georgia, serif" font-size="34" letter-spacing="3">FRENCH 75</text>
  </g>
</svg>